<svg width="50" height="50" xmlns="http://www.w3.org/2000/svg" shape-rendering="crispEdges"><path fill="#FFF" d="M7 0h1v1H7zM8 0h1v1H8zM9 0h1v1H9zM10 0h1v1h-1zM11 0h1v1h-1zM12 0h1v1h-1zM13 0h1v1h-1zM14 0h1v1h-1zM15 0h1v1h-1zM16 0h1v1h-1zM17 0h1v1h-1zM18 0h1v1h-1zM19 0h1v1h-1zM20 0h1v1h-1zM21 0h1v1h-1zM22 0h1v1h-1zM23 0h1v1h-1zM24 0h1v1h-1zM25 0h1v1h-1zM26 0h1v1h-1zM27 0h1v1h-1zM28 0h1v1h-1zM29 0h1v1h-1zM30 0h1v1h-1zM31 0h1v1h-1zM32 0h1v1h-1zM33 0h1v1h-1zM34 0h1v1h-1zM35 0h1v1h-1zM36 0h1v1h-1zM37 0h1v1h-1zM38 0h1v1h-1zM39 0h1v1h-1zM40 0h1v1h-1zM41 0h1v1h-1zM42 0h1v1h-1zM6 1h1v1H6zM7 1h1v1H7zM8 1h1v1H8zM9 1h1v1H9zM10 1h1v1h-1zM11 1h1v1h-1zM12 1h1v1h-1zM13 1h1v1h-1zM14 1h1v1h-1zM15 1h1v1h-1zM16 1h1v1h-1zM17 1h1v1h-1zM18 1h1v1h-1zM19 1h1v1h-1zM20 1h1v1h-1zM21 1h1v1h-1zM22 1h1v1h-1zM23 1h1v1h-1zM24 1h1v1h-1zM25 1h1v1h-1zM26 1h1v1h-1zM27 1h1v1h-1zM28 1h1v1h-1zM29 1h1v1h-1zM30 1h1v1h-1zM31 1h1v1h-1zM32 1h1v1h-1zM33 1h1v1h-1zM34 1h1v1h-1zM35 1h1v1h-1zM36 1h1v1h-1zM37 1h1v1h-1zM38 1h1v1h-1zM39 1h1v1h-1zM40 1h1v1h-1zM41 1h1v1h-1zM42 1h1v1h-1zM43 1h1v1h-1zM5 2h1v1H5zM6 2h1v1H6zM7 2h1v1H7zM8 2h1v1H8zM9 2h1v1H9zM10 2h1v1h-1zM11 2h1v1h-1zM12 2h1v1h-1zM13 2h1v1h-1zM14 2h1v1h-1zM15 2h1v1h-1zM16 2h1v1h-1zM17 2h1v1h-1zM18 2h1v1h-1zM19 2h1v1h-1zM20 2h1v1h-1zM21 2h1v1h-1zM22 2h1v1h-1zM23 2h1v1h-1zM24 2h1v1h-1zM25 2h1v1h-1zM26 2h1v1h-1zM27 2h1v1h-1zM28 2h1v1h-1zM29 2h1v1h-1zM30 2h1v1h-1zM31 2h1v1h-1zM32 2h1v1h-1zM33 2h1v1h-1zM34 2h1v1h-1zM35 2h1v1h-1zM36 2h1v1h-1zM37 2h1v1h-1zM38 2h1v1h-1zM39 2h1v1h-1zM40 2h1v1h-1zM41 2h1v1h-1zM42 2h1v1h-1zM43 2h1v1h-1zM44 2h1v1h-1zM5 3h1v1H5zM6 3h1v1H6zM7 3h1v1H7zM8 3h1v1H8zM9 3h1v1H9zM10 3h1v1h-1zM11 3h1v1h-1zM12 3h1v1h-1zM13 3h1v1h-1zM14 3h1v1h-1zM15 3h1v1h-1zM16 3h1v1h-1zM17 3h1v1h-1zM18 3h1v1h-1zM19 3h1v1h-1zM20 3h1v1h-1zM21 3h1v1h-1zM22 3h1v1h-1zM23 3h1v1h-1zM24 3h1v1h-1zM25 3h1v1h-1zM26 3h1v1h-1zM27 3h1v1h-1zM28 3h1v1h-1zM29 3h1v1h-1zM30 3h1v1h-1zM31 3h1v1h-1zM32 3h1v1h-1zM33 3h1v1h-1zM34 3h1v1h-1zM35 3h1v1h-1zM36 3h1v1h-1zM37 3h1v1h-1zM38 3h1v1h-1zM39 3h1v1h-1zM40 3h1v1h-1zM41 3h1v1h-1zM42 3h1v1h-1zM43 3h1v1h-1zM44 3h1v1h-1zM5 4h1v1H5zM6 4h1v1H6zM7 4h1v1H7zM8 4h1v1H8zM9 4h1v1H9zM10 4h1v1h-1zM11 4h1v1h-1zM12 4h1v1h-1zM13 4h1v1h-1zM14 4h1v1h-1zM15 4h1v1h-1zM16 4h1v1h-1zM17 4h1v1h-1zM18 4h1v1h-1zM19 4h1v1h-1zM20 4h1v1h-1zM21 4h1v1h-1zM22 4h1v1h-1zM23 4h1v1h-1zM24 4h1v1h-1zM25 4h1v1h-1zM26 4h1v1h-1zM27 4h1v1h-1zM28 4h1v1h-1zM29 4h1v1h-1zM30 4h1v1h-1zM31 4h1v1h-1zM32 4h1v1h-1zM33 4h1v1h-1zM34 4h1v1h-1zM35 4h1v1h-1zM36 4h1v1h-1zM37 4h1v1h-1zM38 4h1v1h-1zM39 4h1v1h-1zM40 4h1v1h-1zM41 4h1v1h-1zM42 4h1v1h-1zM43 4h1v1h-1zM44 4h1v1h-1zM5 5h1v1H5zM6 5h1v1H6zM7 5h1v1H7zM8 5h1v1H8zM9 5h1v1H9zM40 5h1v1h-1zM41 5h1v1h-1zM42 5h1v1h-1zM43 5h1v1h-1zM44 5h1v1h-1zM5 6h1v1H5zM6 6h1v1H6zM7 6h1v1H7zM8 6h1v1H8zM9 6h1v1H9zM40 6h1v1h-1zM41 6h1v1h-1zM42 6h1v1h-1zM43 6h1v1h-1zM44 6h1v1h-1zM5 7h1v1H5zM6 7h1v1H6zM7 7h1v1H7zM8 7h1v1H8zM9 7h1v1H9zM40 7h1v1h-1zM41 7h1v1h-1zM42 7h1v1h-1zM43 7h1v1h-1zM44 7h1v1h-1zM5 8h1v1H5zM6 8h1v1H6zM7 8h1v1H7zM8 8h1v1H8zM9 8h1v1H9zM40 8h1v1h-1zM41 8h1v1h-1zM42 8h1v1h-1zM43 8h1v1h-1zM44 8h1v1h-1zM5 9h1v1H5zM6 9h1v1H6zM7 9h1v1H7zM8 9h1v1H8zM9 9h1v1H9zM40 9h1v1h-1zM41 9h1v1h-1zM42 9h1v1h-1zM43 9h1v1h-1zM44 9h1v1h-1zM5 10h1v1H5zM6 10h1v1H6zM7 10h1v1H7zM8 10h1v1H8zM9 10h1v1H9zM40 10h1v1h-1zM41 10h1v1h-1zM42 10h1v1h-1zM43 10h1v1h-1zM44 10h1v1h-1zM5 11h1v1H5zM6 11h1v1H6zM7 11h1v1H7zM8 11h1v1H8zM9 11h1v1H9zM40 11h1v1h-1zM41 11h1v1h-1zM42 11h1v1h-1zM43 11h1v1h-1zM44 11h1v1h-1zM5 12h1v1H5zM6 12h1v1H6zM7 12h1v1H7zM8 12h1v1H8zM9 12h1v1H9zM40 12h1v1h-1zM41 12h1v1h-1zM42 12h1v1h-1zM43 12h1v1h-1zM44 12h1v1h-1zM5 13h1v1H5zM6 13h1v1H6zM7 13h1v1H7zM8 13h1v1H8zM9 13h1v1H9zM40 13h1v1h-1zM41 13h1v1h-1zM42 13h1v1h-1zM43 13h1v1h-1zM44 13h1v1h-1zM5 14h1v1H5zM6 14h1v1H6zM7 14h1v1H7zM8 14h1v1H8zM9 14h1v1H9zM41 14h1v1h-1zM42 14h1v1h-1zM43 14h1v1h-1zM5 15h1v1H5zM6 15h1v1H6zM7 15h1v1H7zM8 15h1v1H8zM9 15h1v1H9zM5 16h1v1H5zM6 16h1v1H6zM7 16h1v1H7zM8 16h1v1H8zM9 16h1v1H9zM5 17h1v1H5zM6 17h1v1H6zM7 17h1v1H7zM8 17h1v1H8zM9 17h1v1H9zM41 17h1v1h-1zM5 18h1v1H5zM6 18h1v1H6zM7 18h1v1H7zM8 18h1v1H8zM9 18h1v1H9zM41 18h1v1h-1zM42 18h1v1h-1zM5 19h1v1H5zM6 19h1v1H6zM7 19h1v1H7zM8 19h1v1H8zM9 19h1v1H9zM41 19h1v1h-1zM42 19h1v1h-1zM43 19h1v1h-1zM5 20h1v1H5zM6 20h1v1H6zM7 20h1v1H7zM8 20h1v1H8zM9 20h1v1H9zM41 20h1v1h-1zM42 20h1v1h-1zM43 20h1v1h-1zM44 20h1v1h-1zM5 21h1v1H5zM6 21h1v1H6zM7 21h1v1H7zM8 21h1v1H8zM9 21h1v1H9zM41 21h1v1h-1zM42 21h1v1h-1zM43 21h1v1h-1zM44 21h1v1h-1zM45 21h1v1h-1zM5 22h1v1H5zM6 22h1v1H6zM7 22h1v1H7zM8 22h1v1H8zM9 22h1v1H9zM17 22h1v1h-1zM18 22h1v1h-1zM19 22h1v1h-1zM20 22h1v1h-1zM21 22h1v1h-1zM22 22h1v1h-1zM23 22h1v1h-1zM24 22h1v1h-1zM25 22h1v1h-1zM26 22h1v1h-1zM27 22h1v1h-1zM28 22h1v1h-1zM29 22h1v1h-1zM30 22h1v1h-1zM31 22h1v1h-1zM32 22h1v1h-1zM33 22h1v1h-1zM34 22h1v1h-1zM35 22h1v1h-1zM36 22h1v1h-1zM37 22h1v1h-1zM38 22h1v1h-1zM39 22h1v1h-1zM40 22h1v1h-1zM41 22h1v1h-1zM42 22h1v1h-1zM43 22h1v1h-1zM44 22h1v1h-1zM45 22h1v1h-1zM46 22h1v1h-1zM5 23h1v1H5zM6 23h1v1H6zM7 23h1v1H7zM8 23h1v1H8zM9 23h1v1H9zM16 23h1v1h-1zM17 23h1v1h-1zM18 23h1v1h-1zM19 23h1v1h-1zM20 23h1v1h-1zM21 23h1v1h-1zM22 23h1v1h-1zM23 23h1v1h-1zM24 23h1v1h-1zM25 23h1v1h-1zM26 23h1v1h-1zM27 23h1v1h-1zM28 23h1v1h-1zM29 23h1v1h-1zM30 23h1v1h-1zM31 23h1v1h-1zM32 23h1v1h-1zM33 23h1v1h-1zM34 23h1v1h-1zM35 23h1v1h-1zM36 23h1v1h-1zM37 23h1v1h-1zM38 23h1v1h-1zM39 23h1v1h-1zM40 23h1v1h-1zM41 23h1v1h-1zM42 23h1v1h-1zM43 23h1v1h-1zM44 23h1v1h-1zM45 23h1v1h-1zM46 23h1v1h-1zM47 23h1v1h-1zM5 24h1v1H5zM6 24h1v1H6zM7 24h1v1H7zM8 24h1v1H8zM9 24h1v1H9zM16 24h1v1h-1zM17 24h1v1h-1zM18 24h1v1h-1zM19 24h1v1h-1zM20 24h1v1h-1zM21 24h1v1h-1zM22 24h1v1h-1zM23 24h1v1h-1zM24 24h1v1h-1zM25 24h1v1h-1zM26 24h1v1h-1zM27 24h1v1h-1zM28 24h1v1h-1zM29 24h1v1h-1zM30 24h1v1h-1zM31 24h1v1h-1zM32 24h1v1h-1zM33 24h1v1h-1zM34 24h1v1h-1zM35 24h1v1h-1zM36 24h1v1h-1zM37 24h1v1h-1zM38 24h1v1h-1zM39 24h1v1h-1zM40 24h1v1h-1zM41 24h1v1h-1zM42 24h1v1h-1zM43 24h1v1h-1zM44 24h1v1h-1zM45 24h1v1h-1zM46 24h1v1h-1zM47 24h1v1h-1zM48 24h1v1h-1zM5 25h1v1H5zM6 25h1v1H6zM7 25h1v1H7zM8 25h1v1H8zM9 25h1v1H9zM16 25h1v1h-1zM17 25h1v1h-1zM18 25h1v1h-1zM19 25h1v1h-1zM20 25h1v1h-1zM21 25h1v1h-1zM22 25h1v1h-1zM23 25h1v1h-1zM24 25h1v1h-1zM25 25h1v1h-1zM26 25h1v1h-1zM27 25h1v1h-1zM28 25h1v1h-1zM29 25h1v1h-1zM30 25h1v1h-1zM31 25h1v1h-1zM32 25h1v1h-1zM33 25h1v1h-1zM34 25h1v1h-1zM35 25h1v1h-1zM36 25h1v1h-1zM37 25h1v1h-1zM38 25h1v1h-1zM39 25h1v1h-1zM40 25h1v1h-1zM41 25h1v1h-1zM42 25h1v1h-1zM43 25h1v1h-1zM44 25h1v1h-1zM45 25h1v1h-1zM46 25h1v1h-1zM47 25h1v1h-1zM48 25h1v1h-1zM5 26h1v1H5zM6 26h1v1H6zM7 26h1v1H7zM8 26h1v1H8zM9 26h1v1H9zM16 26h1v1h-1zM17 26h1v1h-1zM18 26h1v1h-1zM19 26h1v1h-1zM20 26h1v1h-1zM21 26h1v1h-1zM22 26h1v1h-1zM23 26h1v1h-1zM24 26h1v1h-1zM25 26h1v1h-1zM26 26h1v1h-1zM27 26h1v1h-1zM28 26h1v1h-1zM29 26h1v1h-1zM30 26h1v1h-1zM31 26h1v1h-1zM32 26h1v1h-1zM33 26h1v1h-1zM34 26h1v1h-1zM35 26h1v1h-1zM36 26h1v1h-1zM37 26h1v1h-1zM38 26h1v1h-1zM39 26h1v1h-1zM40 26h1v1h-1zM41 26h1v1h-1zM42 26h1v1h-1zM43 26h1v1h-1zM44 26h1v1h-1zM45 26h1v1h-1zM46 26h1v1h-1zM47 26h1v1h-1zM5 27h1v1H5zM6 27h1v1H6zM7 27h1v1H7zM8 27h1v1H8zM9 27h1v1H9zM17 27h1v1h-1zM18 27h1v1h-1zM19 27h1v1h-1zM20 27h1v1h-1zM21 27h1v1h-1zM22 27h1v1h-1zM23 27h1v1h-1zM24 27h1v1h-1zM25 27h1v1h-1zM26 27h1v1h-1zM27 27h1v1h-1zM28 27h1v1h-1zM29 27h1v1h-1zM30 27h1v1h-1zM31 27h1v1h-1zM32 27h1v1h-1zM33 27h1v1h-1zM34 27h1v1h-1zM35 27h1v1h-1zM36 27h1v1h-1zM37 27h1v1h-1zM38 27h1v1h-1zM39 27h1v1h-1zM40 27h1v1h-1zM41 27h1v1h-1zM42 27h1v1h-1zM43 27h1v1h-1zM44 27h1v1h-1zM45 27h1v1h-1zM46 27h1v1h-1zM5 28h1v1H5zM6 28h1v1H6zM7 28h1v1H7zM8 28h1v1H8zM9 28h1v1H9zM41 28h1v1h-1zM42 28h1v1h-1zM43 28h1v1h-1zM44 28h1v1h-1zM45 28h1v1h-1zM5 29h1v1H5zM6 29h1v1H6zM7 29h1v1H7zM8 29h1v1H8zM9 29h1v1H9zM41 29h1v1h-1zM42 29h1v1h-1zM43 29h1v1h-1zM44 29h1v1h-1zM5 30h1v1H5zM6 30h1v1H6zM7 30h1v1H7zM8 30h1v1H8zM9 30h1v1H9zM41 30h1v1h-1zM42 30h1v1h-1zM43 30h1v1h-1zM5 31h1v1H5zM6 31h1v1H6zM7 31h1v1H7zM8 31h1v1H8zM9 31h1v1H9zM41 31h1v1h-1zM42 31h1v1h-1zM5 32h1v1H5zM6 32h1v1H6zM7 32h1v1H7zM8 32h1v1H8zM9 32h1v1H9zM41 32h1v1h-1zM5 33h1v1H5zM6 33h1v1H6zM7 33h1v1H7zM8 33h1v1H8zM9 33h1v1H9zM5 34h1v1H5zM6 34h1v1H6zM7 34h1v1H7zM8 34h1v1H8zM9 34h1v1H9zM5 35h1v1H5zM6 35h1v1H6zM7 35h1v1H7zM8 35h1v1H8zM9 35h1v1H9zM41 35h1v1h-1zM42 35h1v1h-1zM43 35h1v1h-1zM5 36h1v1H5zM6 36h1v1H6zM7 36h1v1H7zM8 36h1v1H8zM9 36h1v1H9zM40 36h1v1h-1zM41 36h1v1h-1zM42 36h1v1h-1zM43 36h1v1h-1zM44 36h1v1h-1zM5 37h1v1H5zM6 37h1v1H6zM7 37h1v1H7zM8 37h1v1H8zM9 37h1v1H9zM40 37h1v1h-1zM41 37h1v1h-1zM42 37h1v1h-1zM43 37h1v1h-1zM44 37h1v1h-1zM5 38h1v1H5zM6 38h1v1H6zM7 38h1v1H7zM8 38h1v1H8zM9 38h1v1H9zM40 38h1v1h-1zM41 38h1v1h-1zM42 38h1v1h-1zM43 38h1v1h-1zM44 38h1v1h-1zM5 39h1v1H5zM6 39h1v1H6zM7 39h1v1H7zM8 39h1v1H8zM9 39h1v1H9zM40 39h1v1h-1zM41 39h1v1h-1zM42 39h1v1h-1zM43 39h1v1h-1zM44 39h1v1h-1zM5 40h1v1H5zM6 40h1v1H6zM7 40h1v1H7zM8 40h1v1H8zM9 40h1v1H9zM40 40h1v1h-1zM41 40h1v1h-1zM42 40h1v1h-1zM43 40h1v1h-1zM44 40h1v1h-1zM5 41h1v1H5zM6 41h1v1H6zM7 41h1v1H7zM8 41h1v1H8zM9 41h1v1H9zM40 41h1v1h-1zM41 41h1v1h-1zM42 41h1v1h-1zM43 41h1v1h-1zM44 41h1v1h-1zM5 42h1v1H5zM6 42h1v1H6zM7 42h1v1H7zM8 42h1v1H8zM9 42h1v1H9zM40 42h1v1h-1zM41 42h1v1h-1zM42 42h1v1h-1zM43 42h1v1h-1zM44 42h1v1h-1zM5 43h1v1H5zM6 43h1v1H6zM7 43h1v1H7zM8 43h1v1H8zM9 43h1v1H9zM40 43h1v1h-1zM41 43h1v1h-1zM42 43h1v1h-1zM43 43h1v1h-1zM44 43h1v1h-1zM5 44h1v1H5zM6 44h1v1H6zM7 44h1v1H7zM8 44h1v1H8zM9 44h1v1H9zM40 44h1v1h-1zM41 44h1v1h-1zM42 44h1v1h-1zM43 44h1v1h-1zM44 44h1v1h-1zM5 45h1v1H5zM6 45h1v1H6zM7 45h1v1H7zM8 45h1v1H8zM9 45h1v1H9zM10 45h1v1h-1zM11 45h1v1h-1zM12 45h1v1h-1zM13 45h1v1h-1zM14 45h1v1h-1zM15 45h1v1h-1zM16 45h1v1h-1zM17 45h1v1h-1zM18 45h1v1h-1zM19 45h1v1h-1zM20 45h1v1h-1zM21 45h1v1h-1zM22 45h1v1h-1zM23 45h1v1h-1zM24 45h1v1h-1zM25 45h1v1h-1zM26 45h1v1h-1zM27 45h1v1h-1zM28 45h1v1h-1zM29 45h1v1h-1zM30 45h1v1h-1zM31 45h1v1h-1zM32 45h1v1h-1zM33 45h1v1h-1zM34 45h1v1h-1zM35 45h1v1h-1zM36 45h1v1h-1zM37 45h1v1h-1zM38 45h1v1h-1zM39 45h1v1h-1zM40 45h1v1h-1zM41 45h1v1h-1zM42 45h1v1h-1zM43 45h1v1h-1zM44 45h1v1h-1zM5 46h1v1H5zM6 46h1v1H6zM7 46h1v1H7zM8 46h1v1H8zM9 46h1v1H9zM10 46h1v1h-1zM11 46h1v1h-1zM12 46h1v1h-1zM13 46h1v1h-1zM14 46h1v1h-1zM15 46h1v1h-1zM16 46h1v1h-1zM17 46h1v1h-1zM18 46h1v1h-1zM19 46h1v1h-1zM20 46h1v1h-1zM21 46h1v1h-1zM22 46h1v1h-1zM23 46h1v1h-1zM24 46h1v1h-1zM25 46h1v1h-1zM26 46h1v1h-1zM27 46h1v1h-1zM28 46h1v1h-1zM29 46h1v1h-1zM30 46h1v1h-1zM31 46h1v1h-1zM32 46h1v1h-1zM33 46h1v1h-1zM34 46h1v1h-1zM35 46h1v1h-1zM36 46h1v1h-1zM37 46h1v1h-1zM38 46h1v1h-1zM39 46h1v1h-1zM40 46h1v1h-1zM41 46h1v1h-1zM42 46h1v1h-1zM43 46h1v1h-1zM44 46h1v1h-1zM5 47h1v1H5zM6 47h1v1H6zM7 47h1v1H7zM8 47h1v1H8zM9 47h1v1H9zM10 47h1v1h-1zM11 47h1v1h-1zM12 47h1v1h-1zM13 47h1v1h-1zM14 47h1v1h-1zM15 47h1v1h-1zM16 47h1v1h-1zM17 47h1v1h-1zM18 47h1v1h-1zM19 47h1v1h-1zM20 47h1v1h-1zM21 47h1v1h-1zM22 47h1v1h-1zM23 47h1v1h-1zM24 47h1v1h-1zM25 47h1v1h-1zM26 47h1v1h-1zM27 47h1v1h-1zM28 47h1v1h-1zM29 47h1v1h-1zM30 47h1v1h-1zM31 47h1v1h-1zM32 47h1v1h-1zM33 47h1v1h-1zM34 47h1v1h-1zM35 47h1v1h-1zM36 47h1v1h-1zM37 47h1v1h-1zM38 47h1v1h-1zM39 47h1v1h-1zM40 47h1v1h-1zM41 47h1v1h-1zM42 47h1v1h-1zM43 47h1v1h-1zM44 47h1v1h-1zM6 48h1v1H6zM7 48h1v1H7zM8 48h1v1H8zM9 48h1v1H9zM10 48h1v1h-1zM11 48h1v1h-1zM12 48h1v1h-1zM13 48h1v1h-1zM14 48h1v1h-1zM15 48h1v1h-1zM16 48h1v1h-1zM17 48h1v1h-1zM18 48h1v1h-1zM19 48h1v1h-1zM20 48h1v1h-1zM21 48h1v1h-1zM22 48h1v1h-1zM23 48h1v1h-1zM24 48h1v1h-1zM25 48h1v1h-1zM26 48h1v1h-1zM27 48h1v1h-1zM28 48h1v1h-1zM29 48h1v1h-1zM30 48h1v1h-1zM31 48h1v1h-1zM32 48h1v1h-1zM33 48h1v1h-1zM34 48h1v1h-1zM35 48h1v1h-1zM36 48h1v1h-1zM37 48h1v1h-1zM38 48h1v1h-1zM39 48h1v1h-1zM40 48h1v1h-1zM41 48h1v1h-1zM42 48h1v1h-1zM43 48h1v1h-1zM7 49h1v1H7zM8 49h1v1H8zM9 49h1v1H9zM10 49h1v1h-1zM11 49h1v1h-1zM12 49h1v1h-1zM13 49h1v1h-1zM14 49h1v1h-1zM15 49h1v1h-1zM16 49h1v1h-1zM17 49h1v1h-1zM18 49h1v1h-1zM19 49h1v1h-1zM20 49h1v1h-1zM21 49h1v1h-1zM22 49h1v1h-1zM23 49h1v1h-1zM24 49h1v1h-1zM25 49h1v1h-1zM26 49h1v1h-1zM27 49h1v1h-1zM28 49h1v1h-1zM29 49h1v1h-1zM30 49h1v1h-1zM31 49h1v1h-1zM32 49h1v1h-1zM33 49h1v1h-1zM34 49h1v1h-1zM35 49h1v1h-1zM36 49h1v1h-1zM37 49h1v1h-1zM38 49h1v1h-1zM39 49h1v1h-1zM40 49h1v1h-1zM41 49h1v1h-1zM42 49h1v1h-1z"/></svg>